<svg xmlns="http://www.w3.org/2000/svg" width="1920" height="1080" viewBox="0 0 1920 1080">
  <g fill="none" stroke="rgba(74,202,226,0.2)" stroke-width="1">
    <path d="M50 50 L200 100 L150 250 Z"></path>
    <path d="M200 100 L350 50 L300 200 Z"></path>
    <path d="M150 250 L300 200 L200 350 Z"></path>
    <path d="M300 200 L450 150 L400 300 Z"></path>
    <path d="M400 300 L550 250 L500 400 Z"></path>
    <path d="M500 400 L650 350 L600 500 Z"></path>
    <path d="M600 500 L750 450 L700 600 Z"></path>
    <path d="M700 600 L850 550 L800 700 Z"></path>
    <path d="M800 700 L950 650 L900 800 Z"></path>
    <path d="M900 800 L1050 750 L1000 900 Z"></path>
    <path d="M1000 900 L1150 850 L1100 1000 Z"></path>
    <path d="M1100 1000 L1250 950 L1200 1080 Z"></path>
    <!-- Puedes agregar más triángulos si gustas -->

    <!-- Nodos -->
    <circle cx="50" cy="50" r="2"></circle>
    <circle cx="200" cy="100" r="2"></circle>
    <circle cx="150" cy="250" r="2"></circle>
    <circle cx="300" cy="200" r="2"></circle>
    <circle cx="400" cy="300" r="2"></circle>
    <circle cx="500" cy="400" r="2"></circle>
    <circle cx="600" cy="500" r="2"></circle>
    <circle cx="700" cy="600" r="2"></circle>
    <circle cx="800" cy="700" r="2"></circle>
    <circle cx="900" cy="800" r="2"></circle>
    <circle cx="1000" cy="900" r="2"></circle>
    <circle cx="1100" cy="1000" r="2"></circle>
  </g>
</svg>
