<svg xmlns="http://www.w3.org/2000/svg" width="1920" height="1080" viewBox="0 0 1920 1080">
  <g fill="none" stroke="rgba(74,202,226,0.12)" stroke-width="1">
    <path d="M0 200 C300 150, 600 250, 900 200 S1500 150, 1920 200"></path>
    <path d="M0 400 C400 350, 800 450, 1200 400 S1600 350, 1920 400"></path>
    <path d="M0 600 C300 550, 700 650, 1000 600 S1500 550, 1920 600"></path>
    <path d="M0 800 C500 750, 1000 850, 1500 800 S1800 750, 1920 800"></path>
    <path d="M200 0 C250 300, 300 600, 400 1080"></path>
    <path d="M600 0 C650 300, 700 600, 800 1080"></path>
    <path d="M1000 0 C1050 300, 1100 600, 1200 1080"></path>
    <path d="M1400 0 C1450 300, 1500 600, 1600 1080"></path>
    <path d="M1800 0 C1850 300, 1900 600, 1920 1080"></path>
  </g>
</svg>
