<svg xmlns="http://www.w3.org/2000/svg" width="200" height="200" viewBox="0 0 200 200">
  <g fill="none" stroke="rgba(74,202,226,0.2)" stroke-width="1">
    <!-- Malla diagonal -->
    <path d="M0 0 L200 200"></path>
    <path d="M0 40 L160 200"></path>
    <path d="M0 80 L120 200"></path>
    <path d="M0 120 L80 200"></path>
    <path d="M0 160 L40 200"></path>
    <path d="M40 0 L200 160"></path>
    <path d="M80 0 L200 120"></path>
    <path d="M120 0 L200 80"></path>
    <path d="M160 0 L200 40"></path>

    <!-- Malla diagonal inversa -->
    <path d="M200 0 L0 200"></path>
    <path d="M160 0 L0 160"></path>
    <path d="M120 0 L0 120"></path>
    <path d="M80 0 L0 80"></path>
    <path d="M40 0 L0 40"></path>
    <path d="M200 40 L40 200"></path>
    <path d="M200 80 L80 200"></path>
    <path d="M200 120 L120 200"></path>
    <path d="M200 160 L160 200"></path>

    <!-- Nodos en intersecciones principales -->
    <circle cx="0" cy="0" r="2"></circle>
    <circle cx="100" cy="100" r="2"></circle>
    <circle cx="200" cy="0" r="2"></circle>
    <circle cx="0" cy="200" r="2"></circle>
    <circle cx="200" cy="200" r="2"></circle>
    <circle cx="50" cy="50" r="2"></circle>
    <circle cx="150" cy="50" r="2"></circle>
    <circle cx="50" cy="150" r="2"></circle>
    <circle cx="150" cy="150" r="2"></circle>
  </g>
</svg>
