<svg xmlns="http://www.w3.org/2000/svg" width="300" height="300" viewBox="0 0 300 300">
  <g fill="none" stroke="rgba(74,202,226,0.2)" stroke-width="1">
    <path d="M0 0 L150 0 L75 75 Z"></path>
    <path d="M150 0 L300 0 L225 75 Z"></path>
    <path d="M75 75 L150 0 L225 75 L150 150 Z"></path>
    <path d="M0 0 L75 75 L0 150 Z"></path>
    <path d="M0 150 L75 75 L150 150 L75 225 Z"></path>
    <path d="M150 150 L225 75 L300 150 L225 225 Z"></path>
    <path d="M75 225 L150 150 L225 225 L150 300 Z"></path>
    <path d="M0 150 L75 225 L0 300 Z"></path>
    <path d="M225 225 L300 150 L300 300 Z"></path>
  </g>
</svg>
